# xmcd CD database file
#
# Track frame offsets:
#	150
#	9283
#	21563
#	34803
#	47615
#	56637
#	73409
#	91113
#	105029
#	117874
#	130457
#	143112
#	154541
#	162645
#	175267
#	185821
#	195452
#	207930
#	220504
#	230701
#
# Disc length: 3303 seconds
#
# Revision: 0
# Processed by: cddbd v1.5.2PL0 Copyright (c) Steve Scherf et al.
# Submitted via: CDex 1.51
#
DISCID=190ce514
DTITLE=Various Artist - The Ultimate Collection Country 100 Hits [CD01)
DYEAR=2009
DGENRE=Country
TTITLE0=Jerry Lee Lewis - Jambalaya
TTITLE1=Johnny Cash - I Walk The Line
TTITLE2=Hank Williams - Hey Good Lookin'
TTITLE3=Conway Twitty - Can't Stop Loving You
TTITLE4=Frankie Laine -Rawhide
TTITLE5=The Oak Ridge Boys - Elvira
TTITLE6=Billy Swan - I Can Help
TTITLE7=Bill Monroe And His Blue Grass Boys - Blue Moon Of Kentucky
TTITLE8=Tex Williams - Smoke! Smoke! Smoke! that Cigerrate
TTITLE9=Roy Orbison - Crying
TTITLE10=Johnny Cash - Folsom Prison Blues
TTITLE11=Charlie Feathers - Defrost Your Heart
TTITLE12=Jerry Lee Lewis - Your Cheatin' Heart
TTITLE13=Hank Williams - I'm So Lonesome I Could Die
TTITLE14=Johnny Cash - Cold Cold Heart
TTITLE15=Roy Orbinson - You're Gonna Cry
TTITLE16=Jerry Lee Lewis - Crazy Arms
TTITLE17=George Jones - White Lightning
TTITLE18=The Everly Brothers - Bird Dog
TTITLE19=T.G shepard - Last Cheater's Waltz
EXTD=YEAR: 2009
EXTT0=
EXTT1=
EXTT2=
EXTT3=
EXTT4=
EXTT5=
EXTT6=
EXTT7=
EXTT8=
EXTT9=
EXTT10=
EXTT11=
EXTT12=
EXTT13=
EXTT14=
EXTT15=
EXTT16=
EXTT17=
EXTT18=
EXTT19=
PLAYORDER=
